<?xml version="1.0" encoding="UTF-8"?>
<!--
  Source: AI-generated (ChatGPT / DALL-E) top-down solid-silhouette image, vectorized via tools/image_to_svg.py
  License: generated asset (no third-party copyright); freely usable in drawtonomy templates
  Modified: viewBox trimmed to content bbox, preserveAspectRatio="none" added
-->
<svg xmlns="http://www.w3.org/2000/svg" width="382" height="1160" viewBox="432.9 43.5 382.4 1159.8" preserveAspectRatio="none">
  <path d="M 546.0 49.0 C 544.4 49.2, 542.3 50.1, 541.0 51.0 C 539.3 52.2, 538.0 55.3, 536.0 56.0 C 530.8 57.8, 523.3 57.6, 518.0 59.0 C 510.0 61.2, 499.5 64.5, 492.0 68.0 C 487.9 69.9, 483.1 73.7, 480.0 77.0 C 477.9 79.2, 476.0 83.1, 475.0 86.0 C 473.6 90.1, 472.3 95.7, 472.0 100.0 C 470.8 115.3, 471.2 135.7, 470.0 151.0 C 469.9 151.8, 468.2 152.2, 468.0 153.0 C 467.5 155.7, 470.4 160.8, 468.0 162.0 C 461.8 165.0, 451.8 162.7, 445.0 164.0 C 443.8 164.2, 442.2 165.7, 442.0 167.0 C 441.3 171.7, 443.7 178.5, 442.0 183.0 C 441.0 185.6, 434.6 185.2, 434.0 188.0 C 432.0 197.7, 433.2 211.1, 434.0 221.0 C 434.1 222.3, 435.7 223.8, 437.0 224.0 C 440.8 224.7, 446.2 224.7, 450.0 224.0 C 451.3 223.8, 452.8 222.3, 453.0 221.0 C 454.1 212.4, 454.0 200.7, 454.0 192.0 C 454.0 190.8, 453.9 188.9, 453.0 188.0 C 451.3 186.3, 446.8 186.3, 446.0 184.0 C 444.4 179.8, 445.2 173.4, 446.0 169.0 C 446.2 167.9, 447.9 167.0, 449.0 167.0 C 454.7 166.7, 466.9 162.4, 468.0 168.0 C 473.5 197.2, 469.6 237.3, 468.0 267.0 C 467.8 271.3, 462.0 275.7, 462.0 280.0 C 460.2 533.2, 461.4 870.8, 462.0 1124.0 C 462.0 1125.9, 463.9 1128.1, 464.0 1130.0 C 464.5 1142.3, 462.9 1158.8, 464.0 1171.0 C 464.4 1175.4, 466.9 1181.0, 469.0 1185.0 C 470.3 1187.5, 472.7 1190.4, 475.0 1192.0 C 479.2 1195.0, 485.2 1198.3, 490.0 1200.0 C 494.6 1201.6, 501.1 1203.0, 506.0 1203.0 C 579.2 1203.6, 676.8 1203.1, 750.0 1202.0 C 753.4 1201.9, 757.8 1200.3, 761.0 1199.0 C 764.5 1197.6, 769.0 1195.2, 772.0 1193.0 C 774.4 1191.3, 777.2 1188.4, 779.0 1186.0 C 780.6 1183.8, 782.3 1180.6, 783.0 1178.0 C 784.2 1173.3, 784.9 1166.8, 785.0 1162.0 C 785.2 1153.0, 783.6 1141.0, 784.0 1132.0 C 784.2 1128.9, 787.0 1125.1, 787.0 1122.0 C 787.9 870.6, 787.6 535.4, 787.0 284.0 C 787.0 281.2, 786.0 277.6, 785.0 275.0 C 784.2 273.0, 781.1 271.2, 781.0 269.0 C 779.3 242.3, 779.0 206.7, 779.0 180.0 C 779.0 179.2, 780.9 178.8, 781.0 178.0 C 781.5 175.0, 778.4 169.5, 781.0 168.0 C 785.9 165.1, 794.3 166.5, 800.0 167.0 C 801.3 167.1, 802.8 168.7, 803.0 170.0 C 803.7 174.1, 804.5 180.1, 803.0 184.0 C 802.3 185.8, 798.6 185.0, 797.0 186.0 C 796.1 186.6, 795.1 187.9, 795.0 189.0 C 794.5 198.3, 794.5 210.7, 795.0 220.0 C 795.1 221.1, 796.0 222.7, 797.0 223.0 C 801.1 224.0, 806.8 224.2, 811.0 224.0 C 812.1 223.9, 813.9 223.1, 814.0 222.0 C 815.1 212.8, 815.8 200.3, 815.0 191.0 C 814.8 188.8, 812.6 186.4, 811.0 185.0 C 810.1 184.2, 807.3 185.2, 807.0 184.0 C 805.9 179.3, 807.7 172.7, 807.0 168.0 C 806.8 166.5, 805.5 164.3, 804.0 164.0 C 797.3 162.4, 786.8 165.8, 781.0 162.0 C 777.2 159.5, 778.4 151.6, 778.0 147.0 C 777.4 139.8, 778.4 130.2, 778.0 123.0 C 777.5 113.4, 776.7 100.5, 775.0 91.0 C 774.3 87.2, 772.1 82.3, 770.0 79.0 C 768.2 76.2, 764.9 72.7, 762.0 71.0 C 756.1 67.5, 747.6 64.0, 741.0 62.0 C 732.5 59.4, 720.5 58.7, 712.0 56.0 C 710.0 55.3, 708.7 52.2, 707.0 51.0 C 705.7 50.1, 703.6 49.2, 702.0 49.0 C 686.4 47.1, 665.7 44.8, 650.0 44.0 C 634.4 43.3, 613.6 43.3, 598.0 44.0 C 582.3 44.8, 561.6 47.1, 546.0 49.0 Z M 720.0 1191.0 C 720.1 1190.8, 722.8 1188.0, 723.0 1188.0 C 724.4 1187.9, 753.6 1187.9, 755.0 1188.0 C 755.1 1188.0, 757.0 1189.9, 757.0 1190.0 C 757.1 1190.2, 757.1 1193.8, 757.0 1194.0 C 757.0 1194.1, 755.1 1196.0, 755.0 1196.0 C 754.8 1196.1, 750.2 1196.0, 750.0 1196.0 C 749.9 1196.0, 749.1 1197.0, 749.0 1197.0 C 747.8 1197.0, 724.2 1197.1, 723.0 1197.0 C 722.8 1197.0, 720.1 1194.2, 720.0 1194.0 C 719.9 1193.9, 719.9 1191.1, 720.0 1191.0 Z M 491.0 1191.0 C 491.1 1190.8, 493.8 1188.0, 494.0 1188.0 C 495.4 1187.9, 524.6 1187.9, 526.0 1188.0 C 526.1 1188.0, 528.0 1189.9, 528.0 1190.0 C 528.1 1190.2, 528.1 1194.8, 528.0 1195.0 C 528.0 1195.1, 526.1 1197.0, 526.0 1197.0 C 524.8 1197.1, 500.2 1197.0, 499.0 1197.0 C 498.9 1197.0, 498.1 1196.0, 498.0 1196.0 C 497.8 1196.0, 494.2 1196.1, 494.0 1196.0 C 493.8 1195.9, 491.1 1193.2, 491.0 1193.0 C 491.0 1192.9, 491.0 1191.1, 491.0 1191.0 Z M 603.0 1081.0 C 603.2 1080.8, 606.8 1077.1, 607.0 1077.0 C 607.2 1076.9, 610.8 1077.0, 611.0 1077.0 C 611.1 1077.0, 611.9 1076.0, 612.0 1076.0 C 612.4 1076.0, 621.6 1076.0, 622.0 1076.0 C 622.1 1076.0, 622.9 1077.0, 623.0 1077.0 C 623.1 1077.0, 625.9 1077.0, 626.0 1077.0 C 626.1 1077.0, 626.9 1076.0, 627.0 1076.0 C 627.1 1076.0, 627.9 1077.0, 628.0 1077.0 C 628.1 1077.0, 628.9 1076.0, 629.0 1076.0 C 629.4 1076.0, 636.6 1076.0, 637.0 1076.0 C 637.1 1076.0, 637.9 1077.0, 638.0 1077.0 C 638.1 1077.0, 640.9 1077.0, 641.0 1077.0 C 641.1 1077.0, 642.9 1077.9, 643.0 1078.0 C 643.2 1078.2, 646.0 1081.8, 646.0 1082.0 C 646.1 1083.3, 646.2 1110.7, 646.0 1112.0 C 646.0 1112.3, 642.2 1115.9, 642.0 1116.0 C 641.9 1116.0, 640.1 1116.0, 640.0 1116.0 C 639.9 1116.0, 639.1 1117.0, 639.0 1117.0 C 637.7 1117.0, 610.3 1117.1, 609.0 1117.0 C 608.8 1117.0, 605.2 1115.1, 605.0 1115.0 C 604.8 1114.9, 602.0 1111.2, 602.0 1111.0 C 601.9 1109.7, 602.0 1084.3, 602.0 1083.0 C 602.0 1082.9, 602.9 1081.1, 603.0 1081.0 Z M 774.0 1040.0 C 774.2 1039.9, 778.8 1039.9, 779.0 1040.0 C 779.2 1040.0, 782.0 1041.8, 782.0 1042.0 C 782.1 1045.5, 782.1 1116.5, 782.0 1120.0 C 782.0 1120.1, 780.1 1122.0, 780.0 1122.0 C 779.7 1122.1, 774.3 1122.1, 774.0 1122.0 C 773.9 1122.0, 772.0 1120.1, 772.0 1120.0 C 771.9 1119.9, 772.0 1117.1, 772.0 1117.0 C 772.0 1116.9, 771.0 1116.1, 771.0 1116.0 C 771.0 1113.5, 771.0 1062.5, 771.0 1060.0 C 771.0 1059.9, 772.0 1059.1, 772.0 1059.0 C 772.0 1058.9, 772.0 1057.1, 772.0 1057.0 C 772.0 1056.9, 771.0 1056.1, 771.0 1056.0 C 771.0 1055.5, 770.9 1044.5, 771.0 1044.0 C 771.0 1043.8, 773.8 1040.1, 774.0 1040.0 Z M 469.0 1040.0 C 469.2 1039.9, 473.8 1039.9, 474.0 1040.0 C 474.1 1040.0, 476.0 1041.9, 476.0 1042.0 C 476.1 1045.5, 476.1 1116.5, 476.0 1120.0 C 476.0 1120.1, 474.1 1122.0, 474.0 1122.0 C 473.7 1122.1, 468.3 1122.1, 468.0 1122.0 C 467.9 1122.0, 466.0 1120.1, 466.0 1120.0 C 465.9 1116.5, 465.9 1045.5, 466.0 1042.0 C 466.0 1041.8, 468.8 1040.0, 469.0 1040.0 Z M 775.0 945.0 C 775.2 945.0, 778.8 944.9, 779.0 945.0 C 779.2 945.1, 782.0 947.8, 782.0 948.0 C 782.1 951.5, 782.1 1021.5, 782.0 1025.0 C 782.0 1025.1, 780.1 1027.0, 780.0 1027.0 C 779.7 1027.1, 773.3 1027.1, 773.0 1027.0 C 772.8 1026.9, 771.0 1023.2, 771.0 1023.0 C 770.9 1019.8, 771.0 955.2, 771.0 952.0 C 771.0 951.9, 772.0 951.1, 772.0 951.0 C 772.0 950.8, 771.9 947.2, 772.0 947.0 C 772.1 946.9, 774.8 945.0, 775.0 945.0 Z M 469.0 945.0 C 469.2 944.9, 473.8 944.9, 474.0 945.0 C 474.1 945.0, 476.0 946.9, 476.0 947.0 C 476.1 950.6, 476.0 1022.4, 476.0 1026.0 C 476.0 1026.1, 475.1 1027.0, 475.0 1027.0 C 474.7 1027.0, 468.3 1027.1, 468.0 1027.0 C 467.9 1027.0, 466.0 1025.1, 466.0 1025.0 C 465.9 1021.5, 465.9 951.5, 466.0 948.0 C 466.0 947.8, 468.8 945.1, 469.0 945.0 Z M 773.0 851.0 C 773.3 850.9, 779.7 850.9, 780.0 851.0 C 780.1 851.0, 782.0 852.9, 782.0 853.0 C 782.1 856.5, 782.1 926.5, 782.0 930.0 C 782.0 930.1, 780.1 932.0, 780.0 932.0 C 779.7 932.1, 773.3 932.1, 773.0 932.0 C 772.8 931.9, 771.0 929.2, 771.0 929.0 C 770.9 925.6, 770.9 857.4, 771.0 854.0 C 771.0 853.8, 772.8 851.1, 773.0 851.0 Z M 468.0 851.0 C 468.3 850.9, 474.7 851.0, 475.0 851.0 C 475.1 851.0, 476.0 851.9, 476.0 852.0 C 476.0 855.6, 476.0 927.4, 476.0 931.0 C 476.0 931.1, 475.1 932.0, 475.0 932.0 C 474.7 932.0, 468.3 932.1, 468.0 932.0 C 467.9 932.0, 466.0 930.1, 466.0 930.0 C 465.9 926.5, 465.9 856.5, 466.0 853.0 C 466.0 852.9, 467.9 851.0, 468.0 851.0 Z M 603.0 852.0 C 603.1 851.8, 606.8 849.1, 607.0 849.0 C 607.3 848.9, 612.7 849.0, 613.0 849.0 C 613.1 849.0, 613.9 848.0, 614.0 848.0 C 614.2 848.0, 617.8 848.0, 618.0 848.0 C 618.1 848.0, 618.9 849.0, 619.0 849.0 C 619.6 849.0, 632.4 849.0, 633.0 849.0 C 633.1 849.0, 633.9 848.0, 634.0 848.0 C 634.1 848.0, 636.9 848.0, 637.0 848.0 C 637.1 848.0, 637.9 849.0, 638.0 849.0 C 638.1 849.0, 640.9 849.0, 641.0 849.0 C 641.1 849.0, 642.9 849.9, 643.0 850.0 C 643.2 850.2, 646.0 853.8, 646.0 854.0 C 646.1 855.3, 646.2 882.7, 646.0 884.0 C 646.0 884.3, 642.2 887.8, 642.0 888.0 C 641.9 888.1, 640.1 889.0, 640.0 889.0 C 638.5 889.0, 608.5 889.1, 607.0 889.0 C 606.9 889.0, 605.1 887.1, 605.0 887.0 C 605.0 887.0, 604.0 887.0, 604.0 887.0 C 603.9 886.9, 602.1 884.2, 602.0 884.0 C 602.0 883.9, 602.0 881.1, 602.0 881.0 C 602.0 880.9, 601.0 880.1, 601.0 880.0 C 601.0 879.0, 601.0 858.0, 601.0 857.0 C 601.0 856.9, 602.0 856.1, 602.0 856.0 C 602.1 855.8, 602.9 852.2, 603.0 852.0 Z M 774.0 756.0 C 774.3 755.9, 779.7 755.9, 780.0 756.0 C 780.1 756.0, 782.0 757.9, 782.0 758.0 C 782.1 761.5, 782.1 831.5, 782.0 835.0 C 782.0 835.2, 779.2 837.9, 779.0 838.0 C 778.8 838.1, 775.2 838.0, 775.0 838.0 C 774.9 838.0, 773.1 837.1, 773.0 837.0 C 772.9 836.9, 771.0 834.2, 771.0 834.0 C 770.9 830.6, 770.9 762.4, 771.0 759.0 C 771.0 758.8, 773.8 756.1, 774.0 756.0 Z M 468.0 756.0 C 468.3 755.9, 473.8 755.9, 474.0 756.0 C 474.2 756.1, 476.9 759.8, 477.0 760.0 C 477.0 760.1, 476.0 760.9, 476.0 761.0 C 476.0 764.4, 476.1 832.6, 476.0 836.0 C 476.0 836.2, 473.2 838.0, 473.0 838.0 C 472.8 838.0, 469.2 838.1, 469.0 838.0 C 468.8 837.9, 466.0 835.2, 466.0 835.0 C 465.9 831.5, 465.9 761.5, 466.0 758.0 C 466.0 757.9, 467.9 756.0, 468.0 756.0 Z M 773.0 662.0 C 773.3 661.9, 779.7 661.9, 780.0 662.0 C 780.1 662.0, 782.0 663.9, 782.0 664.0 C 782.1 667.5, 782.1 737.5, 782.0 741.0 C 782.0 741.1, 780.1 743.0, 780.0 743.0 C 779.7 743.1, 774.2 743.1, 774.0 743.0 C 773.8 742.9, 771.0 739.2, 771.0 739.0 C 770.9 735.9, 771.0 674.1, 771.0 671.0 C 771.0 670.9, 772.0 670.1, 772.0 670.0 C 772.0 669.9, 772.0 667.1, 772.0 667.0 C 772.0 666.9, 771.0 665.1, 771.0 665.0 C 771.0 664.8, 772.8 662.1, 773.0 662.0 Z M 468.0 662.0 C 468.3 661.9, 474.7 662.0, 475.0 662.0 C 475.1 662.0, 476.0 662.9, 476.0 663.0 C 476.0 666.5, 476.1 737.5, 476.0 741.0 C 476.0 741.1, 474.1 743.0, 474.0 743.0 C 473.7 743.1, 468.3 743.1, 468.0 743.0 C 467.9 743.0, 466.0 741.1, 466.0 741.0 C 465.9 737.5, 465.9 667.5, 466.0 664.0 C 466.0 663.9, 467.9 662.0, 468.0 662.0 Z M 579.0 618.0 C 579.0 617.9, 579.9 616.1, 580.0 616.0 C 580.2 615.8, 583.8 612.1, 584.0 612.0 C 584.1 612.0, 585.9 612.0, 586.0 612.0 C 586.1 612.0, 586.9 611.0, 587.0 611.0 C 590.1 611.0, 652.9 611.0, 656.0 611.0 C 656.1 611.0, 656.9 612.0, 657.0 612.0 C 657.1 612.0, 659.9 611.9, 660.0 612.0 C 660.1 612.0, 661.9 613.9, 662.0 614.0 C 662.0 614.0, 663.0 614.0, 663.0 614.0 C 663.1 614.1, 665.0 616.8, 665.0 617.0 C 665.1 618.7, 665.2 652.3, 665.0 654.0 C 665.0 654.3, 661.2 657.8, 661.0 658.0 C 660.9 658.1, 659.1 659.0, 659.0 659.0 C 658.8 659.0, 655.2 659.0, 655.0 659.0 C 654.9 659.0, 654.1 660.0, 654.0 660.0 C 651.2 660.0, 593.8 660.0, 591.0 660.0 C 590.9 660.0, 590.1 659.0, 590.0 659.0 C 589.8 659.0, 585.2 659.1, 585.0 659.0 C 584.7 658.9, 580.2 655.2, 580.0 655.0 C 579.9 654.9, 580.0 653.1, 580.0 653.0 C 580.0 652.9, 579.0 652.1, 579.0 652.0 C 579.0 650.5, 579.0 619.5, 579.0 618.0 Z M 774.0 567.0 C 774.2 566.9, 778.8 566.9, 779.0 567.0 C 779.2 567.1, 782.0 569.8, 782.0 570.0 C 782.1 573.4, 782.1 642.6, 782.0 646.0 C 782.0 646.2, 779.2 648.9, 779.0 649.0 C 778.8 649.1, 774.2 649.1, 774.0 649.0 C 773.9 649.0, 772.1 647.1, 772.0 647.0 C 772.0 646.9, 772.0 645.1, 772.0 645.0 C 772.0 644.9, 771.0 644.1, 771.0 644.0 C 771.0 641.1, 771.0 582.9, 771.0 580.0 C 771.0 579.9, 772.0 579.1, 772.0 579.0 C 772.0 578.9, 771.0 577.1, 771.0 577.0 C 771.0 576.8, 771.0 573.2, 771.0 573.0 C 771.0 572.9, 772.0 572.1, 772.0 572.0 C 772.0 571.9, 771.9 569.1, 772.0 569.0 C 772.0 568.9, 773.9 567.0, 774.0 567.0 Z M 469.0 567.0 C 469.2 566.9, 473.8 566.9, 474.0 567.0 C 474.1 567.0, 476.0 568.9, 476.0 569.0 C 476.1 572.5, 476.1 643.5, 476.0 647.0 C 476.0 647.1, 474.1 649.0, 474.0 649.0 C 473.8 649.1, 469.2 649.1, 469.0 649.0 C 468.8 648.9, 466.0 646.2, 466.0 646.0 C 465.9 642.5, 465.9 572.5, 466.0 569.0 C 466.0 568.8, 468.8 567.0, 469.0 567.0 Z M 774.0 469.0 C 774.3 468.9, 779.7 468.9, 780.0 469.0 C 780.1 469.0, 782.0 470.9, 782.0 471.0 C 782.1 474.6, 782.1 548.4, 782.0 552.0 C 782.0 552.2, 779.2 554.9, 779.0 555.0 C 778.8 555.1, 774.2 555.1, 774.0 555.0 C 773.9 555.0, 772.1 553.1, 772.0 553.0 C 772.0 552.9, 772.0 551.1, 772.0 551.0 C 772.0 550.9, 771.0 550.1, 771.0 550.0 C 771.0 549.6, 771.0 542.4, 771.0 542.0 C 771.0 541.9, 772.0 541.1, 772.0 541.0 C 772.0 540.9, 771.0 539.1, 771.0 539.0 C 771.0 536.8, 771.0 491.2, 771.0 489.0 C 771.0 488.9, 772.0 488.1, 772.0 488.0 C 772.0 487.9, 772.0 485.1, 772.0 485.0 C 772.0 484.9, 771.0 484.1, 771.0 484.0 C 771.0 483.6, 771.0 476.4, 771.0 476.0 C 771.0 475.9, 772.0 475.1, 772.0 475.0 C 772.0 474.8, 771.9 471.2, 772.0 471.0 C 772.0 470.9, 773.9 469.0, 774.0 469.0 Z M 468.0 469.0 C 468.3 468.9, 473.7 468.9, 474.0 469.0 C 474.1 469.0, 476.0 470.9, 476.0 471.0 C 476.1 474.7, 476.1 549.3, 476.0 553.0 C 476.0 553.1, 474.1 555.0, 474.0 555.0 C 473.8 555.1, 469.2 555.1, 469.0 555.0 C 468.8 554.9, 466.0 552.2, 466.0 552.0 C 465.9 548.4, 465.9 474.6, 466.0 471.0 C 466.0 470.9, 467.9 469.0, 468.0 469.0 Z M 773.0 375.0 C 773.3 375.0, 779.7 374.9, 780.0 375.0 C 780.1 375.0, 782.0 376.9, 782.0 377.0 C 782.1 380.5, 782.1 450.5, 782.0 454.0 C 782.0 454.1, 780.1 456.0, 780.0 456.0 C 779.7 456.1, 774.3 456.1, 774.0 456.0 C 773.9 456.0, 772.0 454.1, 772.0 454.0 C 771.9 453.9, 772.0 451.1, 772.0 451.0 C 772.0 450.9, 771.0 450.1, 771.0 450.0 C 771.0 449.4, 771.0 437.6, 771.0 437.0 C 771.0 436.9, 772.0 436.1, 772.0 436.0 C 772.0 435.9, 772.0 434.1, 772.0 434.0 C 772.0 433.9, 771.0 433.1, 771.0 433.0 C 771.0 431.2, 771.0 393.8, 771.0 392.0 C 771.0 391.9, 772.0 391.1, 772.0 391.0 C 772.0 390.3, 772.0 376.7, 772.0 376.0 C 772.0 375.9, 772.9 375.0, 773.0 375.0 Z M 468.0 375.0 C 468.3 374.9, 474.7 375.0, 475.0 375.0 C 475.1 375.0, 476.0 375.9, 476.0 376.0 C 476.0 379.5, 476.1 450.5, 476.0 454.0 C 476.0 454.1, 474.1 456.0, 474.0 456.0 C 473.7 456.1, 468.3 456.1, 468.0 456.0 C 467.9 456.0, 466.0 454.1, 466.0 454.0 C 465.9 450.5, 465.9 380.5, 466.0 377.0 C 466.0 376.9, 467.9 375.0, 468.0 375.0 Z M 603.0 341.0 C 603.1 340.9, 604.9 339.1, 605.0 339.0 C 605.2 338.9, 608.8 337.0, 609.0 337.0 C 610.4 336.9, 638.6 337.0, 640.0 337.0 C 640.1 337.0, 641.9 337.9, 642.0 338.0 C 642.2 338.2, 646.0 341.7, 646.0 342.0 C 646.2 343.3, 646.2 370.7, 646.0 372.0 C 646.0 372.3, 641.3 377.0, 641.0 377.0 C 639.5 377.2, 608.5 377.2, 607.0 377.0 C 606.7 377.0, 603.2 373.2, 603.0 373.0 C 602.9 372.9, 602.0 371.1, 602.0 371.0 C 602.0 369.7, 602.0 344.3, 602.0 343.0 C 602.0 342.9, 602.9 341.1, 603.0 341.0 Z M 775.0 280.0 C 775.2 280.0, 778.8 279.9, 779.0 280.0 C 779.2 280.1, 782.0 282.8, 782.0 283.0 C 782.1 286.5, 782.1 356.5, 782.0 360.0 C 782.0 360.1, 780.1 362.0, 780.0 362.0 C 779.7 362.1, 774.2 362.1, 774.0 362.0 C 773.8 361.9, 771.1 358.2, 771.0 358.0 C 770.9 357.7, 771.0 351.3, 771.0 351.0 C 771.0 350.9, 772.0 350.1, 772.0 350.0 C 772.0 349.9, 771.0 349.1, 771.0 349.0 C 771.0 346.3, 771.0 290.7, 771.0 288.0 C 771.0 287.9, 772.0 287.1, 772.0 287.0 C 772.0 286.8, 771.9 282.2, 772.0 282.0 C 772.1 281.9, 774.8 280.0, 775.0 280.0 Z M 469.0 280.0 C 469.2 279.9, 473.8 279.9, 474.0 280.0 C 474.1 280.0, 476.0 281.9, 476.0 282.0 C 476.1 285.5, 476.1 356.5, 476.0 360.0 C 476.0 360.1, 474.1 362.0, 474.0 362.0 C 473.7 362.1, 468.3 362.1, 468.0 362.0 C 467.9 362.0, 466.0 360.1, 466.0 360.0 C 465.9 356.5, 465.9 286.5, 466.0 283.0 C 466.0 282.8, 468.8 280.1, 469.0 280.0 Z M 486.0 217.0 C 486.1 216.4, 489.5 212.3, 490.0 212.0 C 491.3 211.3, 504.5 206.4, 506.0 206.0 C 508.1 205.4, 527.8 200.4, 530.0 200.0 C 530.9 199.8, 539.1 199.2, 540.0 199.0 C 541.0 198.8, 550.0 196.2, 551.0 196.0 C 552.2 195.8, 563.7 195.2, 565.0 195.0 C 565.1 195.0, 565.9 194.0, 566.0 194.0 C 567.6 193.8, 582.4 193.2, 584.0 193.0 C 584.1 193.0, 584.9 192.0, 585.0 192.0 C 586.3 191.9, 597.7 192.1, 599.0 192.0 C 599.1 192.0, 599.9 191.0, 600.0 191.0 C 604.5 190.9, 645.5 190.9, 650.0 191.0 C 650.1 191.0, 650.9 192.0, 651.0 192.0 C 652.3 192.1, 663.7 191.9, 665.0 192.0 C 665.1 192.0, 665.9 193.0, 666.0 193.0 C 667.6 193.2, 682.4 193.8, 684.0 194.0 C 684.1 194.0, 684.9 195.0, 685.0 195.0 C 685.5 195.1, 690.5 194.9, 691.0 195.0 C 693.9 195.5, 720.2 200.3, 723.0 201.0 C 726.1 201.8, 754.0 209.9, 757.0 211.0 C 757.6 211.2, 761.6 215.5, 762.0 216.0 C 762.2 216.3, 763.0 219.6, 763.0 220.0 C 763.1 222.6, 763.2 246.4, 763.0 249.0 C 762.9 249.6, 760.5 254.7, 760.0 255.0 C 759.2 255.4, 750.9 256.1, 750.0 256.0 C 747.8 255.7, 728.2 251.3, 726.0 251.0 C 724.0 250.7, 706.0 249.3, 704.0 249.0 C 703.9 249.0, 703.1 248.0, 703.0 248.0 C 702.2 247.9, 694.8 248.1, 694.0 248.0 C 693.9 248.0, 693.1 247.0, 693.0 247.0 C 692.1 246.9, 683.9 247.1, 683.0 247.0 C 682.9 247.0, 682.1 246.0, 682.0 246.0 C 678.3 245.8, 644.7 245.2, 641.0 245.0 C 640.9 245.0, 640.1 244.0, 640.0 244.0 C 637.0 243.9, 610.0 243.9, 607.0 244.0 C 606.9 244.0, 606.1 245.0, 606.0 245.0 C 604.0 245.1, 586.0 244.9, 584.0 245.0 C 583.9 245.0, 583.1 246.0, 583.0 246.0 C 579.8 246.3, 550.2 247.7, 547.0 248.0 C 546.9 248.0, 546.1 249.0, 546.0 249.0 C 543.9 249.3, 525.1 250.7, 523.0 251.0 C 520.8 251.3, 501.2 255.7, 499.0 256.0 C 498.2 256.1, 490.8 256.2, 490.0 256.0 C 489.5 255.9, 486.1 252.5, 486.0 252.0 C 485.7 248.9, 485.7 220.1, 486.0 217.0 Z M 722.0 66.0 C 722.0 65.9, 723.9 64.0, 724.0 64.0 C 724.1 64.0, 724.9 65.0, 725.0 65.0 C 725.3 65.1, 731.7 65.9, 732.0 66.0 C 732.1 66.0, 732.9 67.0, 733.0 67.0 C 733.1 67.0, 734.9 67.0, 735.0 67.0 C 735.2 67.1, 738.8 68.9, 739.0 69.0 C 739.1 69.0, 741.9 69.0, 742.0 69.0 C 742.2 69.1, 744.8 70.9, 745.0 71.0 C 745.1 71.0, 746.9 71.0, 747.0 71.0 C 747.2 71.1, 749.8 72.9, 750.0 73.0 C 750.1 73.0, 751.9 73.0, 752.0 73.0 C 752.2 73.1, 755.8 74.9, 756.0 75.0 C 756.2 75.2, 760.8 78.8, 761.0 79.0 C 761.0 79.0, 761.0 80.0, 761.0 80.0 C 761.1 80.1, 763.0 81.9, 763.0 82.0 C 763.1 82.2, 763.1 85.8, 763.0 86.0 C 763.0 86.1, 761.1 87.9, 761.0 88.0 C 761.0 88.0, 760.0 88.0, 760.0 88.0 C 759.5 87.8, 750.5 83.2, 750.0 83.0 C 749.9 83.0, 748.1 83.0, 748.0 83.0 C 747.8 82.9, 745.2 81.1, 745.0 81.0 C 744.9 81.0, 743.1 81.0, 743.0 81.0 C 742.8 80.9, 740.2 79.1, 740.0 79.0 C 739.9 79.0, 738.1 79.0, 738.0 79.0 C 737.9 79.0, 737.1 78.0, 737.0 78.0 C 736.8 77.9, 732.2 77.1, 732.0 77.0 C 731.8 76.9, 729.2 75.1, 729.0 75.0 C 728.9 75.0, 727.1 75.1, 727.0 75.0 C 726.7 74.8, 722.2 70.3, 722.0 70.0 C 721.9 69.8, 721.9 66.2, 722.0 66.0 Z M 526.0 66.0 C 526.1 66.2, 526.0 69.8, 526.0 70.0 C 526.0 70.1, 525.1 71.9, 525.0 72.0 C 524.8 72.2, 521.2 74.9, 521.0 75.0 C 520.8 75.1, 516.2 75.9, 516.0 76.0 C 515.8 76.1, 513.2 77.9, 513.0 78.0 C 512.9 78.0, 511.1 78.0, 511.0 78.0 C 510.8 78.1, 508.2 79.9, 508.0 80.0 C 507.9 80.0, 506.1 80.0, 506.0 80.0 C 505.8 80.1, 503.2 81.9, 503.0 82.0 C 502.9 82.0, 501.1 82.0, 501.0 82.0 C 500.8 82.1, 496.2 84.9, 496.0 85.0 C 495.9 85.0, 494.1 85.0, 494.0 85.0 C 493.7 85.1, 488.3 87.9, 488.0 88.0 C 488.0 88.0, 487.0 88.0, 487.0 88.0 C 486.9 87.9, 485.0 86.1, 485.0 86.0 C 484.9 85.9, 485.0 83.1, 485.0 83.0 C 485.0 82.9, 485.9 81.1, 486.0 81.0 C 486.2 80.8, 490.7 76.2, 491.0 76.0 C 491.4 75.7, 500.5 71.2, 501.0 71.0 C 501.1 71.0, 502.9 71.0, 503.0 71.0 C 503.1 71.0, 503.9 70.0, 504.0 70.0 C 504.1 70.0, 505.9 70.0, 506.0 70.0 C 506.1 70.0, 506.9 69.0, 507.0 69.0 C 507.1 69.0, 508.9 69.0, 509.0 69.0 C 509.2 68.9, 512.8 67.1, 513.0 67.0 C 513.1 67.0, 515.9 67.0, 516.0 67.0 C 516.2 66.9, 519.8 65.1, 520.0 65.0 C 520.1 65.0, 522.9 65.0, 523.0 65.0 C 523.1 65.0, 523.9 64.0, 524.0 64.0 C 524.1 64.0, 526.0 65.9, 526.0 66.0 Z" fill="#000000" fill-rule="evenodd" />
</svg>